<svg xmlns="http://www.w3.org/2000/svg" viewBox="0 0 200 200" fill="none">
  <!-- Outer Gold/Bronze Circular Arc and Supporting Hand at Bottom -->
  <path d="M 50 18 C 100 8 180 30 180 90 C 180 120 165 145 140 160 C 120 172 95 178 70 174 C 55 170 42 162 35 150 C 45 154 60 156 75 152 C 90 148 105 138 118 128 C 130 118 140 108 148 98 L 152 102 C 142 115 130 128 115 138 C 98 150 78 158 55 154 C 40 150 28 140 22 125 M 50 18 C 30 25 15 45 15 70 C 15 95 25 120 40 138" 
        stroke="#BEA074" stroke-width="6" stroke-linecap="round" fill="none" />
  
  <!-- Solid Gold Supportive Hand Shape -->
  <path d="M 45 170 C 75 176 115 168 152 145 C 170 134 182 120 185 110 C 178 122 165 134 148 142 C 115 158 75 162 48 156 Z" 
        fill="#BEA074" />

  <!-- Dark Navy Outer Swoosh Arc -->
  <path d="M 38 42 C 60 18 120 16 165 42 C 180 65 180 105 156 135" 
        stroke="#182535" stroke-width="8" stroke-linecap="round" fill="none" />

  <!-- Grey Head Circle -->
  <circle cx="125" cy="40" r="14" fill="#889098" />

  <!-- Dark Navy Main Spine & Active Posture Figure -->
  <path d="M 115 48 C 85 52 70 65 72 82 C 75 100 115 95 138 105 C 152 112 145 135 120 150 C 95 165 72 152 62 142 L 72 135 C 80 142 100 150 118 140 C 135 130 138 118 126 112 C 108 102 62 108 58 82 C 55 60 75 42 110 38 Z" 
        fill="#182535" />

  <!-- Vertebrae Spine Dots (Gold / Bronze) -->
  <circle cx="68" cy="65" r="3.5" fill="#BEA074" />
  <circle cx="65" cy="74" r="3.5" fill="#BEA074" />
  <circle cx="64" cy="83" r="3.5" fill="#BEA074" />
  <circle cx="65" cy="92" r="3.5" fill="#BEA074" />
  <circle cx="69" cy="101" r="3.5" fill="#BEA074" />

  <!-- Grey Chest & Arm Swoosh -->
  <path d="M 110 65 C 122 72 138 76 142 88 C 130 84 118 78 108 72 Z" 
        fill="#889098" />

  <!-- Grey Lower Leg Swoosh -->
  <path d="M 68 115 C 55 130 38 145 22 156 L 26 160 C 45 148 65 130 78 112 Z" 
        fill="#889098" />
</svg>
